# xmcd
#
# Track frame offsets: 
#        150
#        10275
#        17138
#        26738
#        36732
#        44907
#        57292
#        67707
#        82661
#
# Disc length: 1700 seconds
#
# Revision: 0
# Processed by: cddbd v1.5.2PL0 Copyright (c) Steve Scherf et al.
# Submitted via: ExactAudioCopy v1.1
#
DISCID=7106a209
DTITLE=佐々木Ｋすけ - The 9th Vlues
DYEAR=2014
DGENRE=JPop
TTITLE0=のんびり主義
TTITLE1=石油
TTITLE2=病棟ロック
TTITLE3=抜け毛
TTITLE4=ユーロジンブルース
TTITLE5=Sweet Home Chicago
TTITLE6=矛盾人生
TTITLE7=あたりまえ
TTITLE8=人間になりたい
EXTD=
EXTT0=
EXTT1=
EXTT2=
EXTT3=
EXTT4=
EXTT5=
EXTT6=
EXTT7=
EXTT8=
PLAYORDER=
